Ubuntu-Condensed_Thin.ufo
<glyph name="exclam" format="2">
  <advance width="239"/>
  <unicode hex="0021"/>
  <outline>
    <contour>
      <point x="109" y="183" type="curve"/>
      <point x="135" y="183" type="line"/>
      <point x="139.89050943359666" y="290.59120753912663"/>
      <point x="140" y="389.3699059561129"/>
      <point x="140" y="495" type="curve" smooth="yes"/>
      <point x="140" y="693" type="line"/>
      <point x="104" y="693" type="line"/>
      <point x="104" y="495" type="line" smooth="yes"/>
      <point x="104" y="389.3699059561129"/>
      <point x="105.08765782921925" y="290.5894096964706"/>
    </contour>
    <contour>
      <point x="120" y="-5" type="curve" smooth="yes"/>
      <point x="134" y="-5"/>
      <point x="147" y="9"/>
      <point x="147" y="25" type="curve" smooth="yes"/>
      <point x="147" y="42"/>
      <point x="134" y="54"/>
      <point x="120" y="54" type="curve" smooth="yes"/>
      <point x="104" y="54"/>
      <point x="92" y="42"/>
      <point x="92" y="25" type="curve" smooth="yes"/>
      <point x="92" y="9"/>
      <point x="104" y="-5"/>
    </contour>
  </outline>
</glyph>
<glyph name="parenright" format="2">
  <advance width="258"/>
  <unicode hex="0029"/>
  <outline>
    <contour>
      <point x="42" y="-187" type="line"/>
      <point x="141" y="-4"/>
      <point x="175.0" y="143.0"/>
      <point x="175" y="299" type="curve" smooth="yes"/>
      <point x="175" y="455"/>
      <point x="141" y="602"/>
      <point x="42" y="785" type="curve"/>
      <point x="14" y="772" type="line"/>
      <point x="108" y="595"/>
      <point x="139.0" y="451.0"/>
      <point x="139" y="299" type="curve" smooth="yes"/>
      <point x="139" y="147"/>
      <point x="108" y="3"/>
      <point x="14" y="-174" type="curve"/>
    </contour>
  </outline>
</glyph>
<glyph name="asterisk" format="2">
  <advance width="374"/>
  <unicode hex="002A"/>
  <outline>
    <contour>
      <point x="115" y="423" type="line"/>
      <point x="149" y="470"/>
      <point x="169" y="507"/>
      <point x="186" y="535" type="curve"/>
      <point x="203" y="507"/>
      <point x="223" y="470"/>
      <point x="257" y="423" type="curve"/>
      <point x="282" y="441" type="line"/>
      <point x="251" y="491"/>
      <point x="223" y="524"/>
      <point x="202" y="549" type="curve"/>
      <point x="233" y="556"/>
      <point x="273" y="565"/>
      <point x="327" y="586" type="curve"/>
      <point x="317" y="615" type="line"/>
      <point x="264" y="598"/>
      <point x="226" y="581"/>
      <point x="197" y="569" type="curve"/>
      <point x="200" y="602"/>
      <point x="205" y="645"/>
      <point x="203" y="707" type="curve"/>
      <point x="172" y="707" type="line"/>
      <point x="170" y="646"/>
      <point x="175" y="601"/>
      <point x="178" y="568" type="curve"/>
      <point x="148" y="581"/>
      <point x="110" y="598"/>
      <point x="56" y="615" type="curve"/>
      <point x="46" y="586" type="line"/>
      <point x="99" y="566"/>
      <point x="139" y="556"/>
      <point x="170" y="549" type="curve"/>
      <point x="150" y="524"/>
      <point x="121" y="491"/>
      <point x="90" y="441" type="curve"/>
    </contour>
  </outline>
</glyph>
<glyph name="comma" format="2">
  <advance width="188"/>
  <unicode hex="002C"/>
  <outline>
    <contour>
      <point x="69" y="-128" type="line"/>
      <point x="93.23748380714828" y="-83.56461302022815"/>
      <point x="114.0" y="-33"/>
      <point x="114" y="30" type="curve" smooth="yes"/>
      <point x="114.0" y="43"/>
      <point x="113.90701765685853" y="57.60438523041958"/>
      <point x="112" y="70" type="curve"/>
      <point x="74" y="70" type="line"/>
      <point x="76" y="55"/>
      <point x="76.0" y="39.0"/>
      <point x="76" y="30" type="curve" smooth="yes"/>
      <point x="76.0" y="-27.251612903225805"/>
      <point x="65.88560399267892" y="-75.26147658816248"/>
      <point x="45" y="-123" type="curve"/>
    </contour>
  </outline>
</glyph>
<glyph name="slash" format="2">
  <advance width="226"/>
  <unicode hex="002F"/>
  <outline>
    <contour>
      <point x="-25" y="-185" type="line"/>
      <point x="6" y="-185" type="line"/>
      <point x="250" y="783" type="line"/>
      <point x="217" y="783" type="line"/>
    </contour>
  </outline>
</glyph>
<glyph name="G" format="2">
  <advance width="503"/>
  <unicode hex="0047"/>
  <anchor x="253" y="0" name="bottom"/>
  <anchor x="253" y="693" name="top"/>
  <outline>
    <contour>
      <point x="303" y="-9" type="curve" smooth="yes"/>
      <point x="344.3333333333333" y="-9.0"/>
      <point x="391" y="5"/>
      <point x="426" y="25" type="curve"/>
      <point x="426" y="320" type="line"/>
      <point x="392" y="320" type="line"/>
      <point x="392" y="43" type="line"/>
      <point x="367" y="33"/>
      <point x="331.3258426966292" y="22.0"/>
      <point x="302" y="22" type="curve" smooth="yes"/>
      <point x="165" y="22"/>
      <point x="98" y="138"/>
      <point x="98" y="347" type="curve" smooth="yes"/>
      <point x="98.0" y="560.0"/>
      <point x="163.0" y="671.0"/>
      <point x="288" y="671" type="curve" smooth="yes"/>
      <point x="341.0" y="671.0"/>
      <point x="378.1882437393046" y="657.9169512914833"/>
      <point x="412" y="643" type="curve"/>
      <point x="423" y="670" type="line"/>
      <point x="389.93834844995234" y="688.0336281182078"/>
      <point x="341.6029411764706" y="702.0"/>
      <point x="288" y="702" type="curve" smooth="yes"/>
      <point x="144" y="702"/>
      <point x="62" y="575"/>
      <point x="62" y="347" type="curve" smooth="yes"/>
      <point x="62" y="120"/>
      <point x="142" y="-9"/>
    </contour>
  </outline>
</glyph>
<glyph name="N" format="2">
  <advance width="557"/>
  <unicode hex="004E"/>
  <anchor x="280" y="0" name="bottom"/>
  <anchor x="280" y="693" name="top"/>
  <outline>
    <contour>
      <point x="88" y="0" type="line"/>
      <point x="120" y="0" type="line"/>
      <point x="120" y="641" type="line"/>
      <point x="223" y="467"/>
      <point x="337" y="235"/>
      <point x="436" y="0" type="curve"/>
      <point x="469" y="0" type="line"/>
      <point x="469" y="693" type="line"/>
      <point x="437" y="693" type="line"/>
      <point x="437" y="76" type="line"/>
      <point x="349" y="282"/>
      <point x="232" y="513"/>
      <point x="124" y="693" type="curve"/>
      <point x="88" y="693" type="line"/>
    </contour>
  </outline>
</glyph>
<glyph name="W" format="2">
  <advance width="730"/>
  <unicode hex="0057"/>
  <anchor x="361" y="0" name="bottom"/>
  <anchor x="361" y="693" name="top"/>
  <outline>
    <contour>
      <point x="168" y="0" type="curve"/>
      <point x="213" y="0" type="line"/>
      <point x="275" y="185"/>
      <point x="321" y="357"/>
      <point x="365" y="563" type="curve"/>
      <point x="409" y="357"/>
      <point x="455" y="185"/>
      <point x="517" y="0" type="curve"/>
      <point x="562" y="0" type="line"/>
      <point x="627" y="218"/>
      <point x="665" y="441"/>
      <point x="682" y="693" type="curve"/>
      <point x="647" y="693" type="line"/>
      <point x="636" y="475"/>
      <point x="603" y="267"/>
      <point x="539" y="26" type="curve"/>
      <point x="469" y="245"/>
      <point x="422" y="434"/>
      <point x="386" y="604" type="curve"/>
      <point x="343" y="604" type="line"/>
      <point x="307" y="435"/>
      <point x="260" y="247"/>
      <point x="191" y="30" type="curve"/>
      <point x="128" y="269"/>
      <point x="95" y="476"/>
      <point x="84" y="693" type="curve"/>
      <point x="48" y="693" type="line"/>
      <point x="65" y="441"/>
      <point x="103" y="218"/>
    </contour>
  </outline>
</glyph>
<glyph name="bracketleft" format="2">
  <advance width="244"/>
  <unicode hex="005B"/>
  <outline>
    <contour>
      <point x="101" y="-185" type="line"/>
      <point x="238" y="-185" type="line"/>
      <point x="238" y="-153" type="line"/>
      <point x="133" y="-153" type="line"/>
      <point x="133" y="752" type="line"/>
      <point x="238" y="752" type="line"/>
      <point x="238" y="783" type="line"/>
      <point x="101" y="783" type="line"/>
    </contour>
  </outline>
</glyph>
<glyph name="backslash" format="2">
  <advance width="226"/>
  <unicode hex="005C"/>
  <outline>
    <contour>
      <point x="221" y="-185" type="line"/>
      <point x="253" y="-185" type="line"/>
      <point x="9" y="783" type="line"/>
      <point x="-24" y="783" type="line"/>
    </contour>
  </outline>
</glyph>
<glyph name="underscore" format="2">
  <advance width="312"/>
  <unicode hex="005F"/>
  <outline>
    <contour>
      <point x="-4" y="-182" type="line"/>
      <point x="316" y="-182" type="line"/>
      <point x="316" y="-155" type="line"/>
      <point x="-4" y="-155" type="line"/>
    </contour>
  </outline>
</glyph>
<glyph name="x" format="2">
  <advance width="358"/>
  <unicode hex="0078"/>
  <anchor x="181" y="0" name="bottom"/>
  <anchor x="181" y="513" name="top"/>
  <outline>
    <contour>
      <point x="22" y="0" type="curve"/>
      <point x="54" y="0" type="line"/>
      <point x="77" y="70"/>
      <point x="128" y="169"/>
      <point x="178" y="255" type="curve"/>
      <point x="230" y="166"/>
      <point x="272" y="79"/>
      <point x="302" y="0" type="curve"/>
      <point x="336" y="0" type="line"/>
      <point x="308" y="74"/>
      <point x="260" y="170"/>
      <point x="196" y="283" type="curve"/>
      <point x="321" y="517" type="line"/>
      <point x="289" y="517" type="line"/>
      <point x="181" y="311" type="line"/>
      <point x="72" y="517" type="line"/>
      <point x="36" y="517" type="line"/>
      <point x="162" y="283" type="line"/>
      <point x="99" y="172"/>
      <point x="49" y="75"/>
    </contour>
  </outline>
</glyph>
<glyph name="braceleft" format="2">
  <advance width="239"/>
  <unicode hex="007B"/>
  <outline>
    <contour>
      <point x="221" y="-185" type="curve" smooth="yes"/>
      <point x="233" y="-185" type="line"/>
      <point x="233" y="-154" type="line"/>
      <point x="221" y="-154" type="line" smooth="yes"/>
      <point x="177" y="-154"/>
      <point x="146" y="-131"/>
      <point x="146" y="-44" type="curve" smooth="yes"/>
      <point x="146" y="162" type="line" smooth="yes"/>
      <point x="146" y="237"/>
      <point x="123" y="280"/>
      <point x="81" y="298" type="curve"/>
      <point x="122" y="315"/>
      <point x="146" y="358"/>
      <point x="146" y="435" type="curve" smooth="yes"/>
      <point x="146" y="642" type="line" smooth="yes"/>
      <point x="146" y="729"/>
      <point x="177" y="752"/>
      <point x="221" y="752" type="curve" smooth="yes"/>
      <point x="233" y="752" type="line"/>
      <point x="233" y="783" type="line"/>
      <point x="221" y="783" type="line" smooth="yes"/>
      <point x="157" y="783"/>
      <point x="114" y="745"/>
      <point x="114" y="642" type="curve" smooth="yes"/>
      <point x="114" y="437" type="line" smooth="yes"/>
      <point x="114" y="359"/>
      <point x="88" y="319"/>
      <point x="42" y="314" type="curve"/>
      <point x="42" y="283" type="line"/>
      <point x="88" y="278"/>
      <point x="114" y="238"/>
      <point x="114" y="160" type="curve" smooth="yes"/>
      <point x="114" y="-44" type="line" smooth="yes"/>
      <point x="114" y="-147"/>
      <point x="157" y="-185"/>
    </contour>
  </outline>
</glyph>
<glyph name="braceright" format="2">
  <advance width="239"/>
  <unicode hex="007D"/>
  <outline>
    <contour>
      <point x="6" y="-185" type="line"/>
      <point x="18" y="-185" type="line" smooth="yes"/>
      <point x="82" y="-185"/>
      <point x="125" y="-147"/>
      <point x="125" y="-44" type="curve" smooth="yes"/>
      <point x="125" y="160" type="line" smooth="yes"/>
      <point x="125" y="238"/>
      <point x="151" y="278"/>
      <point x="197" y="283" type="curve"/>
      <point x="197" y="314" type="line"/>
      <point x="151" y="319"/>
      <point x="125" y="359"/>
      <point x="125" y="437" type="curve" smooth="yes"/>
      <point x="125" y="642" type="line" smooth="yes"/>
      <point x="125" y="745"/>
      <point x="82" y="783"/>
      <point x="18" y="783" type="curve" smooth="yes"/>
      <point x="6" y="783" type="line"/>
      <point x="6" y="752" type="line"/>
      <point x="18" y="752" type="line" smooth="yes"/>
      <point x="62" y="752"/>
      <point x="93" y="729"/>
      <point x="93" y="642" type="curve" smooth="yes"/>
      <point x="93" y="435" type="line" smooth="yes"/>
      <point x="93" y="360"/>
      <point x="116" y="317"/>
      <point x="158" y="299" type="curve"/>
      <point x="117" y="282"/>
      <point x="93" y="239"/>
      <point x="93" y="162" type="curve" smooth="yes"/>
      <point x="93" y="-44" type="line" smooth="yes"/>
      <point x="93" y="-131"/>
      <point x="62" y="-154"/>
      <point x="18" y="-154" type="curve" smooth="yes"/>
      <point x="6" y="-154" type="line"/>
    </contour>
  </outline>
</glyph>
<glyph name="ordfeminine" format="2">
  <advance width="310.3"/>
  <unicode hex="00AA"/>
  <outline>
    <contour>
      <point x="174" y="334" type="curve" smooth="yes"/>
      <point x="200" y="334"/>
      <point x="226" y="342"/>
      <point x="244" y="348" type="curve"/>
      <point x="244" y="576" type="line" smooth="yes"/>
      <point x="244" y="674"/>
      <point x="215" y="701"/>
      <point x="146" y="701" type="curve" smooth="yes"/>
      <point x="146" y="701"/>
      <point x="114" y="700"/>
      <point x="84" y="685" type="curve"/>
      <point x="87" y="660" type="line"/>
      <point x="106" y="667"/>
      <point x="119" y="674"/>
      <point x="130" y="674" type="curve" smooth="yes"/>
      <point x="160" y="674"/>
      <point x="217" y="693"/>
      <point x="217" y="623" type="curve" smooth="yes"/>
      <point x="217" y="535" type="line"/>
      <point x="205" y="542"/>
      <point x="179" y="544"/>
      <point x="147" y="544" type="curve" smooth="yes"/>
      <point x="74" y="544"/>
      <point x="56" y="504"/>
      <point x="56" y="444" type="curve" smooth="yes"/>
      <point x="56" y="367"/>
      <point x="74" y="334"/>
    </contour>
    <contour>
      <point x="161" y="359" type="curve" smooth="yes"/>
      <point x="124" y="359"/>
      <point x="83" y="380"/>
      <point x="83" y="437" type="curve" smooth="yes"/>
      <point x="83" y="485"/>
      <point x="92" y="517"/>
      <point x="157" y="517" type="curve" smooth="yes"/>
      <point x="160" y="517"/>
      <point x="159" y="519"/>
      <point x="217" y="510" type="curve"/>
      <point x="217" y="366" type="line"/>
      <point x="190" y="361"/>
      <point x="173" y="359"/>
    </contour>
  </outline>
</glyph>
<glyph name="degree" format="2">
  <advance width="261.2"/>
  <unicode hex="00B0"/>
  <outline>
    <contour>
      <point x="131" y="540" type="curve" smooth="yes"/>
      <point x="198" y="540"/>
      <point x="232" y="583"/>
      <point x="232" y="644" type="curve" smooth="yes"/>
      <point x="232" y="699"/>
      <point x="196" y="748"/>
      <point x="131" y="748" type="curve" smooth="yes"/>
      <point x="63" y="748"/>
      <point x="29" y="704"/>
      <point x="29" y="644" type="curve" smooth="yes"/>
      <point x="29" y="588"/>
      <point x="65" y="540"/>
    </contour>
    <contour>
      <point x="131" y="569" type="curve" smooth="yes"/>
      <point x="89" y="569"/>
      <point x="61" y="601"/>
      <point x="61" y="644" type="curve" smooth="yes"/>
      <point x="61" y="687"/>
      <point x="89" y="718"/>
      <point x="131" y="718" type="curve" smooth="yes"/>
      <point x="173" y="718"/>
      <point x="200" y="687"/>
      <point x="200" y="644" type="curve" smooth="yes"/>
      <point x="200" y="601"/>
      <point x="173" y="569"/>
    </contour>
  </outline>
</glyph>
<glyph name="paragraph" format="2">
  <advance width="474.725"/>
  <unicode hex="00B6"/>
  <outline>
    <contour>
      <point x="233" y="-185" type="line"/>
      <point x="269" y="-185" type="line"/>
      <point x="269" y="664" type="line"/>
      <point x="294" y="667"/>
      <point x="311" y="663"/>
      <point x="341" y="661" type="curve"/>
      <point x="341" y="-185" type="line"/>
      <point x="376" y="-185" type="line"/>
      <point x="376" y="686" type="line"/>
      <point x="350" y="690"/>
      <point x="329" y="697"/>
      <point x="284" y="697" type="curve" smooth="yes"/>
      <point x="177" y="697"/>
      <point x="46" y="642"/>
      <point x="46" y="480" type="curve" smooth="yes"/>
      <point x="46" y="370"/>
      <point x="100" y="280"/>
      <point x="233" y="267" type="curve"/>
    </contour>
  </outline>
</glyph>
<glyph name="Ccedilla" format="2">
  <advance width="448.9"/>
  <unicode hex="00C7"/>
  <outline>
    <contour>
      <point x="235" y="-186" type="curve" smooth="yes"/>
      <point x="253" y="-186"/>
      <point x="326" y="-180"/>
      <point x="326" y="-111" type="curve" smooth="yes"/>
      <point x="326" y="-88"/>
      <point x="317" y="-56"/>
      <point x="271" y="-40" type="curve"/>
      <point x="278" y="-27"/>
      <point x="285" y="-16"/>
      <point x="289" y="-5" type="curve"/>
      <point x="310" y="-7"/>
      <point x="313" y="-7"/>
      <point x="321" y="-7" type="curve" smooth="yes"/>
      <point x="313" y="-7"/>
      <point x="354" y="-12"/>
      <point x="427" y="31" type="curve"/>
      <point x="417" y="56" type="line"/>
      <point x="362" y="29"/>
      <point x="327" y="27"/>
      <point x="315" y="27" type="curve" smooth="yes"/>
      <point x="188" y="27"/>
      <point x="101" y="151"/>
      <point x="101" y="354" type="curve" smooth="yes"/>
      <point x="101" y="560"/>
      <point x="195" y="667"/>
      <point x="293" y="667" type="curve" smooth="yes"/>
      <point x="321" y="667"/>
      <point x="368" y="669"/>
      <point x="410" y="643" type="curve"/>
      <point x="422" y="669" type="line"/>
      <point x="358" y="711"/>
      <point x="317" y="701"/>
      <point x="313" y="701" type="curve" smooth="yes"/>
      <point x="133" y="701"/>
      <point x="62" y="575"/>
      <point x="62" y="357" type="curve" smooth="yes"/>
      <point x="62" y="161"/>
      <point x="113" y="26"/>
      <point x="253" y="-1" type="curve"/>
      <point x="246" y="-16"/>
      <point x="239" y="-33"/>
      <point x="228" y="-53" type="curve"/>
      <point x="286" y="-61"/>
      <point x="297" y="-80"/>
      <point x="297" y="-106" type="curve" smooth="yes"/>
      <point x="297" y="-141"/>
      <point x="267" y="-153"/>
      <point x="221" y="-153" type="curve" smooth="yes"/>
      <point x="223" y="-153"/>
      <point x="203" y="-149"/>
      <point x="190" y="-148" type="curve"/>
      <point x="185" y="-178" type="line"/>
      <point x="217" y="-188"/>
      <point x="223" y="-186"/>
    </contour>
  </outline>
</glyph>
<glyph name="ccedilla" format="2">
  <advance width="336.25"/>
  <unicode hex="00E7"/>
  <outline>
    <contour>
      <point x="168" y="-186" type="curve" smooth="yes"/>
      <point x="185" y="-186"/>
      <point x="258" y="-180"/>
      <point x="258" y="-111" type="curve" smooth="yes"/>
      <point x="258" y="-88"/>
      <point x="249" y="-56"/>
      <point x="204" y="-40" type="curve"/>
      <point x="210" y="-27"/>
      <point x="214" y="-15"/>
      <point x="219" y="-5" type="curve"/>
      <point x="254" y="-4"/>
      <point x="286" y="8"/>
      <point x="315" y="29" type="curve"/>
      <point x="306" y="55" type="line"/>
      <point x="266" y="29"/>
      <point x="220" y="26"/>
      <point x="218" y="26" type="curve" smooth="yes"/>
      <point x="145" y="26"/>
      <point x="91" y="97"/>
      <point x="91" y="256" type="curve" smooth="yes"/>
      <point x="91" y="421"/>
      <point x="138" y="499"/>
      <point x="226" y="499" type="curve" smooth="yes"/>
      <point x="237" y="499"/>
      <point x="279" y="494"/>
      <point x="300" y="477" type="curve"/>
      <point x="311" y="506" type="line"/>
      <point x="276" y="522"/>
      <point x="273" y="530"/>
      <point x="232" y="530" type="curve" smooth="yes"/>
      <point x="114" y="530"/>
      <point x="56" y="441"/>
      <point x="56" y="256" type="curve" smooth="yes"/>
      <point x="56" y="109"/>
      <point x="98" y="18"/>
      <point x="183" y="1" type="curve"/>
      <point x="177" y="-18"/>
      <point x="172" y="-32"/>
      <point x="161" y="-53" type="curve"/>
      <point x="219" y="-61"/>
      <point x="229" y="-80"/>
      <point x="229" y="-106" type="curve" smooth="yes"/>
      <point x="229" y="-141"/>
      <point x="199" y="-153"/>
      <point x="154" y="-153" type="curve" smooth="yes"/>
      <point x="156" y="-153"/>
      <point x="136" y="-149"/>
      <point x="123" y="-148" type="curve"/>
      <point x="118" y="-178" type="line"/>
      <point x="150" y="-188"/>
      <point x="156" y="-186"/>
    </contour>
  </outline>
</glyph>
<glyph name="oslash" format="2">
  <advance width="449.6"/>
  <unicode hex="00F8"/>
  <anchor x="225" y="513" name="top"/>
  <outline>
    <contour>
      <point x="70" y="-29" type="line"/>
      <point x="115" y="41" type="line"/>
      <point x="141" y="12"/>
      <point x="178" y="-5"/>
      <point x="225" y="-5" type="curve" smooth="yes"/>
      <point x="346" y="-5"/>
      <point x="393" y="108"/>
      <point x="393" y="264" type="curve" smooth="yes"/>
      <point x="393" y="337"/>
      <point x="380" y="402"/>
      <point x="356" y="451" type="curve"/>
      <point x="403" y="528" type="line"/>
      <point x="384" y="536" type="line"/>
      <point x="347" y="475" type="line"/>
      <point x="319" y="510"/>
      <point x="280" y="531"/>
      <point x="225" y="531" type="curve" smooth="yes"/>
      <point x="104" y="531"/>
      <point x="56" y="419"/>
      <point x="56" y="264" type="curve" smooth="yes"/>
      <point x="56" y="181"/>
      <point x="70" y="111"/>
      <point x="104" y="63" type="curve"/>
      <point x="53" y="-22" type="line"/>
    </contour>
    <contour>
      <point x="225" y="27" type="curve" smooth="yes"/>
      <point x="187" y="27"/>
      <point x="154" y="44"/>
      <point x="130" y="78" type="curve"/>
      <point x="329" y="395" type="line"/>
      <point x="350" y="360"/>
      <point x="359" y="316"/>
      <point x="359" y="264" type="curve" smooth="yes"/>
      <point x="359" y="124"/>
      <point x="315" y="27"/>
    </contour>
    <contour>
      <point x="130" y="115" type="line"/>
      <point x="105" y="152"/>
      <point x="91" y="205"/>
      <point x="91" y="264" type="curve" smooth="yes"/>
      <point x="91" y="402"/>
      <point x="132" y="500"/>
      <point x="225" y="500" type="curve" smooth="yes"/>
      <point x="270" y="500"/>
      <point x="307" y="476"/>
      <point x="330" y="436" type="curve"/>
    </contour>
  </outline>
</glyph>
<glyph name="dcroat" format="2">
  <advance width="443.55"/>
  <unicode hex="0111"/>
  <outline>
    <contour>
      <point x="243" y="-5" type="curve" smooth="yes"/>
      <point x="258" y="-5"/>
      <point x="308" y="-4"/>
      <point x="357" y="21" type="curve"/>
      <point x="357" y="647" type="line"/>
      <point x="444" y="647" type="line"/>
      <point x="444" y="676" type="line"/>
      <point x="357" y="676" type="line"/>
      <point x="357" y="776" type="line"/>
      <point x="322" y="768" type="line"/>
      <point x="322" y="676" type="line"/>
      <point x="197" y="676" type="line"/>
      <point x="197" y="647" type="line"/>
      <point x="322" y="647" type="line"/>
      <point x="322" y="499" type="line"/>
      <point x="271" y="534"/>
      <point x="245" y="533"/>
      <point x="232" y="533" type="curve" smooth="yes"/>
      <point x="117" y="533"/>
      <point x="56" y="444"/>
      <point x="56" y="264" type="curve" smooth="yes"/>
      <point x="56" y="87"/>
      <point x="103" y="-5"/>
    </contour>
    <contour>
      <point x="261" y="26" type="curve" smooth="yes"/>
      <point x="122" y="26"/>
      <point x="91" y="106"/>
      <point x="91" y="264" type="curve" smooth="yes"/>
      <point x="91" y="470"/>
      <point x="173" y="502"/>
      <point x="234" y="502" type="curve" smooth="yes"/>
      <point x="252" y="502"/>
      <point x="274" y="506"/>
      <point x="322" y="469" type="curve"/>
      <point x="322" y="38" type="line"/>
      <point x="286" y="25"/>
      <point x="250" y="26"/>
    </contour>
  </outline>
</glyph>
<glyph name="Eogonek" format="2">
  <advance width="427.525"/>
  <unicode hex="0118"/>
  <anchor x="213" y="693" name="top"/>
  <outline>
    <contour>
      <point x="331" y="-187" type="curve" smooth="yes"/>
      <point x="345" y="-187"/>
      <point x="351" y="-188"/>
      <point x="376" y="-179" type="curve"/>
      <point x="375" y="-146" type="line"/>
      <point x="359" y="-150"/>
      <point x="354" y="-152"/>
      <point x="347" y="-152" type="curve" smooth="yes"/>
      <point x="308" y="-152"/>
      <point x="290" y="-133"/>
      <point x="290" y="-98" type="curve" smooth="yes"/>
      <point x="290" y="-80"/>
      <point x="280" y="-63"/>
      <point x="374" y="-3" type="curve"/>
      <point x="374" y="35" type="line"/>
      <point x="129" y="35" type="line"/>
      <point x="129" y="346" type="line"/>
      <point x="337" y="346" type="line"/>
      <point x="337" y="381" type="line"/>
      <point x="129" y="381" type="line"/>
      <point x="129" y="658" type="line"/>
      <point x="363" y="658" type="line"/>
      <point x="363" y="693" type="line"/>
      <point x="91" y="693" type="line"/>
      <point x="91" y="0" type="line"/>
      <point x="330" y="0" type="line"/>
      <point x="254" y="-62"/>
      <point x="266" y="-84"/>
      <point x="266" y="-106" type="curve" smooth="yes"/>
      <point x="266" y="-159"/>
      <point x="313" y="-187"/>
    </contour>
  </outline>
</glyph>
<glyph name="eogonek" format="2">
  <advance width="424.275"/>
  <unicode hex="0119"/>
  <anchor x="213" y="513" name="top"/>
  <outline>
    <contour>
      <point x="287" y="-187" type="curve" smooth="yes"/>
      <point x="301" y="-187"/>
      <point x="307" y="-188"/>
      <point x="332" y="-179" type="curve"/>
      <point x="331" y="-146" type="line"/>
      <point x="315" y="-150"/>
      <point x="310" y="-152"/>
      <point x="303" y="-152" type="curve" smooth="yes"/>
      <point x="264" y="-152"/>
      <point x="247" y="-131"/>
      <point x="247" y="-94" type="curve" smooth="yes"/>
      <point x="247" y="-39"/>
      <point x="301" y="12"/>
      <point x="344" y="25" type="curve"/>
      <point x="334" y="51" type="line"/>
      <point x="305" y="31"/>
      <point x="256" y="24"/>
      <point x="255" y="24" type="curve" smooth="yes"/>
      <point x="136" y="24"/>
      <point x="91" y="102"/>
      <point x="90" y="257" type="curve"/>
      <point x="366" y="257" type="line"/>
      <point x="367" y="278"/>
      <point x="367" y="295"/>
      <point x="367" y="313" type="curve" smooth="yes"/>
      <point x="367" y="400"/>
      <point x="353" y="531"/>
      <point x="224" y="531" type="curve" smooth="yes"/>
      <point x="65" y="531"/>
      <point x="57" y="383"/>
      <point x="57" y="274" type="curve" smooth="yes"/>
      <point x="57" y="66"/>
      <point x="117" y="-3"/>
      <point x="236" y="-8" type="curve" smooth="yes"/>
      <point x="242" y="-8"/>
      <point x="246" y="-8"/>
      <point x="253" y="-6" type="curve"/>
      <point x="208" y="-57"/>
      <point x="222" y="-84"/>
      <point x="222" y="-100" type="curve" smooth="yes"/>
      <point x="222" y="-157"/>
      <point x="269" y="-187"/>
    </contour>
    <contour>
      <point x="88" y="285" type="line"/>
      <point x="98" y="407"/>
      <point x="120" y="502"/>
      <point x="222" y="502" type="curve" smooth="yes"/>
      <point x="301" y="502"/>
      <point x="332" y="429"/>
      <point x="329" y="285" type="curve"/>
    </contour>
  </outline>
</glyph>
<glyph name="Iogonek" format="2">
  <advance width="219.475"/>
  <unicode hex="012E"/>
  <outline>
    <contour>
      <point x="87" y="-187" type="curve" smooth="yes"/>
      <point x="101" y="-187"/>
      <point x="108" y="-188"/>
      <point x="132" y="-179" type="curve"/>
      <point x="131" y="-146" type="line"/>
      <point x="115" y="-150"/>
      <point x="110" y="-152"/>
      <point x="103" y="-152" type="curve" smooth="yes"/>
      <point x="64" y="-152"/>
      <point x="47" y="-133"/>
      <point x="47" y="-98" type="curve" smooth="yes"/>
      <point x="47" y="-80"/>
      <point x="40" y="-58"/>
      <point x="129" y="0" type="curve"/>
      <point x="129" y="693" type="line"/>
      <point x="91" y="693" type="line"/>
      <point x="91" y="11" type="line"/>
      <point x="91" y="11" type="line"/>
      <point x="19" y="-44"/>
      <point x="22" y="-82"/>
      <point x="22" y="-106" type="curve" smooth="yes"/>
      <point x="22" y="-159"/>
      <point x="69" y="-187"/>
    </contour>
  </outline>
</glyph>
<glyph name="uni018D" format="2">
  <advance width="451.25"/>
  <unicode hex="018D"/>
  <outline>
    <contour>
      <point x="231" y="-185" type="curve" smooth="yes"/>
      <point x="350" y="-185"/>
      <point x="365" y="-130"/>
      <point x="365" y="-80" type="curve" smooth="yes"/>
      <point x="365" y="-25"/>
      <point x="328" y="4"/>
      <point x="262" y="34" type="curve"/>
      <point x="367" y="105"/>
      <point x="394" y="180"/>
      <point x="394" y="301" type="curve" smooth="yes"/>
      <point x="394" y="473"/>
      <point x="300" y="530"/>
      <point x="226" y="530" type="curve" smooth="yes"/>
      <point x="151" y="530"/>
      <point x="57" y="468"/>
      <point x="57" y="309" type="curve" smooth="yes"/>
      <point x="57" y="163"/>
      <point x="105" y="58"/>
      <point x="283" y="-9" type="curve" smooth="yes"/>
      <point x="334" y="-26"/>
      <point x="329" y="-50"/>
      <point x="329" y="-80" type="curve" smooth="yes"/>
      <point x="329" y="-119"/>
      <point x="304" y="-153"/>
      <point x="231" y="-153" type="curve" smooth="yes"/>
      <point x="218" y="-153"/>
      <point x="181" y="-154"/>
      <point x="108" y="-132" type="curve"/>
      <point x="102" y="-165" type="line"/>
      <point x="161" y="-188"/>
      <point x="205" y="-185"/>
    </contour>
    <contour>
      <point x="220" y="59" type="curve"/>
      <point x="65" y="126"/>
      <point x="92" y="240"/>
      <point x="92" y="306" type="curve" smooth="yes"/>
      <point x="92" y="425"/>
      <point x="148" y="498"/>
      <point x="226" y="498" type="curve" smooth="yes"/>
      <point x="282" y="498"/>
      <point x="359" y="459"/>
      <point x="359" y="302" type="curve" smooth="yes"/>
      <point x="359" y="216"/>
      <point x="331" y="112"/>
    </contour>
  </outline>
</glyph>
<glyph name="Ohorn" format="2">
  <advance width="598.3"/>
  <unicode hex="01A0"/>
  <anchor x="300" y="0" name="bottom"/>
  <anchor x="300" y="693" name="top"/>
  <outline>
    <contour>
      <point x="291" y="-7" type="curve" smooth="yes"/>
      <point x="479" y="-7"/>
      <point x="519" y="166"/>
      <point x="519" y="344" type="curve" smooth="yes"/>
      <point x="519" y="439"/>
      <point x="502" y="525"/>
      <point x="464" y="593" type="curve"/>
      <point x="493" y="631"/>
      <point x="537" y="658"/>
      <point x="537" y="736" type="curve" smooth="yes"/>
      <point x="537" y="761"/>
      <point x="537" y="770"/>
      <point x="533" y="798" type="curve"/>
      <point x="492" y="798" type="line"/>
      <point x="495" y="775"/>
      <point x="494" y="768"/>
      <point x="494" y="753" type="curve" smooth="yes"/>
      <point x="494" y="703"/>
      <point x="474" y="656"/>
      <point x="444" y="632" type="curve"/>
      <point x="408" y="675"/>
      <point x="364" y="701"/>
      <point x="291" y="701" type="curve" smooth="yes"/>
      <point x="107" y="701"/>
      <point x="63" y="522"/>
      <point x="63" y="344" type="curve" smooth="yes"/>
      <point x="63" y="166"/>
      <point x="104" y="-7"/>
    </contour>
    <contour>
      <point x="291" y="27" type="curve" smooth="yes"/>
      <point x="172" y="27"/>
      <point x="102" y="153"/>
      <point x="102" y="344" type="curve" smooth="yes"/>
      <point x="102" y="534"/>
      <point x="172" y="667"/>
      <point x="291" y="667" type="curve" smooth="yes"/>
      <point x="411" y="667"/>
      <point x="480" y="534"/>
      <point x="480" y="344" type="curve" smooth="yes"/>
      <point x="480" y="153"/>
      <point x="411" y="27"/>
    </contour>
  </outline>
</glyph>
<glyph name="uni01A3" format="2">
  <advance width="638.125"/>
  <unicode hex="01A3"/>
  <outline>
    <contour>
      <point x="522" y="-183" type="line"/>
      <point x="556" y="-183" type="line"/>
      <point x="556" y="344" type="line" smooth="yes"/>
      <point x="556" y="533"/>
      <point x="465" y="531"/>
      <point x="453" y="531" type="curve" smooth="yes"/>
      <point x="423" y="531"/>
      <point x="383" y="527"/>
      <point x="340" y="479" type="curve"/>
      <point x="313" y="513"/>
      <point x="275" y="531"/>
      <point x="225" y="531" type="curve" smooth="yes"/>
      <point x="108" y="531"/>
      <point x="56" y="419"/>
      <point x="56" y="264" type="curve" smooth="yes"/>
      <point x="56" y="108"/>
      <point x="108" y="-5"/>
      <point x="225" y="-5" type="curve" smooth="yes"/>
      <point x="343" y="-5"/>
      <point x="393" y="108"/>
      <point x="393" y="264" type="curve" smooth="yes"/>
      <point x="393" y="341"/>
      <point x="378" y="406"/>
      <point x="350" y="454" type="curve"/>
      <point x="389" y="495"/>
      <point x="422" y="497"/>
      <point x="441" y="497" type="curve" smooth="yes"/>
      <point x="497" y="497"/>
      <point x="522" y="453"/>
      <point x="522" y="322" type="curve" smooth="yes"/>
    </contour>
    <contour>
      <point x="225" y="27" type="curve" smooth="yes"/>
      <point x="137" y="27"/>
      <point x="91" y="127"/>
      <point x="91" y="264" type="curve" smooth="yes"/>
      <point x="91" y="400"/>
      <point x="137" y="500"/>
      <point x="225" y="500" type="curve" smooth="yes"/>
      <point x="313" y="500"/>
      <point x="359" y="400"/>
      <point x="359" y="264" type="curve" smooth="yes"/>
      <point x="359" y="127"/>
      <point x="313" y="27"/>
    </contour>
  </outline>
</glyph>
<glyph name="uni01BB" format="2">
  <advance width="514.05"/>
  <unicode hex="01BB"/>
  <anchor x="258" y="0" name="bottom"/>
  <anchor x="258" y="776" name="top"/>
  <outline>
    <contour>
      <point x="108" y="0" type="curve"/>
      <point x="400" y="0" type="line"/>
      <point x="400" y="33" type="line"/>
      <point x="135" y="33" type="line"/>
      <point x="145" y="204"/>
      <point x="284" y="310"/>
      <point x="290" y="337" type="curve"/>
      <point x="405" y="337" type="line"/>
      <point x="405" y="377" type="line"/>
      <point x="308" y="377" type="line"/>
      <point x="376" y="455"/>
      <point x="379" y="490"/>
      <point x="379" y="537" type="curve" smooth="yes"/>
      <point x="379" y="651"/>
      <point x="325" y="706"/>
      <point x="231" y="706" type="curve" smooth="yes"/>
      <point x="227" y="706"/>
      <point x="175" y="731"/>
      <point x="98" y="652" type="curve"/>
      <point x="117" y="628" type="line"/>
      <point x="185" y="695"/>
      <point x="223" y="671"/>
      <point x="224" y="671" type="curve" smooth="yes"/>
      <point x="324" y="671"/>
      <point x="344" y="614"/>
      <point x="344" y="535" type="curve" smooth="yes"/>
      <point x="344" y="493"/>
      <point x="341" y="455"/>
      <point x="273" y="377" type="curve"/>
      <point x="126" y="377" type="line"/>
      <point x="126" y="337" type="line"/>
      <point x="257" y="337" type="line"/>
      <point x="85" y="164"/>
      <point x="108" y="118"/>
      <point x="108" y="19" type="curve" smooth="yes"/>
      <point x="108" y="11"/>
      <point x="107" y="8"/>
    </contour>
  </outline>
</glyph>
<glyph name="uni021C" format="2">
  <advance width="398.9"/>
  <unicode hex="021C"/>
  <outline>
    <contour>
      <point x="57" y="-183" type="curve" smooth="yes"/>
      <point x="318" y="-183"/>
      <point x="350" y="-39"/>
      <point x="350" y="88" type="curve" smooth="yes"/>
      <point x="350" y="201"/>
      <point x="294" y="273"/>
      <point x="218" y="296" type="curve"/>
      <point x="273" y="324"/>
      <point x="329" y="397"/>
      <point x="329" y="506" type="curve" smooth="yes"/>
      <point x="329" y="602"/>
      <point x="282" y="701"/>
      <point x="160" y="701" type="curve" smooth="yes"/>
      <point x="140" y="701"/>
      <point x="104" y="699"/>
      <point x="23" y="652" type="curve"/>
      <point x="35" y="623" type="line"/>
      <point x="96" y="656"/>
      <point x="126" y="661"/>
      <point x="156" y="661" type="curve" smooth="yes"/>
      <point x="237" y="661"/>
      <point x="292" y="600"/>
      <point x="292" y="508" type="curve" smooth="yes"/>
      <point x="292" y="419"/>
      <point x="269" y="314"/>
      <point x="140" y="314" type="curve" smooth="yes"/>
      <point x="94" y="314" type="line"/>
      <point x="94" y="279" type="line"/>
      <point x="128" y="279" type="line" smooth="yes"/>
      <point x="332" y="279"/>
      <point x="313" y="150"/>
      <point x="313" y="91" type="curve" smooth="yes"/>
      <point x="313" y="-10"/>
      <point x="299" y="-143"/>
      <point x="69" y="-143" type="curve" smooth="yes"/>
      <point x="60" y="-143"/>
      <point x="49" y="-143"/>
      <point x="21" y="-141" type="curve"/>
      <point x="28" y="-180" type="line"/>
      <point x="51" y="-183"/>
      <point x="61" y="-183"/>
    </contour>
  </outline>
</glyph>
<glyph name="uni023C" format="2">
  <advance width="314.475"/>
  <unicode hex="023C"/>
  <outline>
    <contour>
      <point x="136" y="-80" type="line"/>
      <point x="153" y="11" type="line"/>
      <point x="173" y="-2"/>
      <point x="196" y="-5"/>
      <point x="228" y="-5" type="curve" smooth="yes"/>
      <point x="251" y="-5"/>
      <point x="289" y="8"/>
      <point x="315" y="29" type="curve"/>
      <point x="306" y="56" type="line"/>
      <point x="265" y="31"/>
      <point x="220" y="26"/>
      <point x="218" y="26" type="curve" smooth="yes"/>
      <point x="193" y="26"/>
      <point x="171" y="32"/>
      <point x="151" y="44" type="curve"/>
      <point x="241" y="498" type="line"/>
      <point x="257" y="496"/>
      <point x="273" y="494"/>
      <point x="282" y="486" type="curve"/>
      <point x="292" y="516" type="line"/>
      <point x="271" y="527"/>
      <point x="256" y="532"/>
      <point x="240" y="533" type="curve"/>
      <point x="257" y="617" type="line"/>
      <point x="245" y="615" type="line"/>
      <point x="229" y="531" type="line"/>
      <point x="237" y="531"/>
      <point x="246" y="530"/>
      <point x="227" y="530" type="curve" smooth="yes"/>
      <point x="111" y="526"/>
      <point x="56" y="438"/>
      <point x="56" y="256" type="curve" smooth="yes"/>
      <point x="56" y="135"/>
      <point x="80" y="52"/>
      <point x="144" y="16" type="curve"/>
      <point x="125" y="-82" type="line"/>
    </contour>
    <contour>
      <point x="145" y="60" type="line"/>
      <point x="111" y="97"/>
      <point x="91" y="158"/>
      <point x="91" y="256" type="curve" smooth="yes"/>
      <point x="91" y="400"/>
      <point x="127" y="501"/>
      <point x="230" y="496" type="curve"/>
    </contour>
  </outline>
</glyph>
<glyph name="uni023F" format="2">
  <advance width="312.525"/>
  <unicode hex="023F"/>
  <outline>
    <contour>
      <point x="244" y="-192" type="curve" smooth="yes"/>
      <point x="251" y="-192"/>
      <point x="248" y="-192"/>
      <point x="269" y="-188" type="curve"/>
      <point x="265" y="-157" type="line"/>
      <point x="257" y="-158"/>
      <point x="240" y="-161"/>
      <point x="232" y="-161" type="curve" smooth="yes"/>
      <point x="244" y="-161"/>
      <point x="213" y="-147"/>
      <point x="175" y="-96" type="curve" smooth="yes"/>
      <point x="177" y="-94"/>
      <point x="143" y="-55"/>
      <point x="117" y="-16" type="curve"/>
      <point x="128" y="-16"/>
      <point x="130" y="-16"/>
      <point x="143" y="-16" type="curve" smooth="yes"/>
      <point x="240" y="-14"/>
      <point x="280" y="60"/>
      <point x="280" y="142" type="curve" smooth="yes"/>
      <point x="280" y="178"/>
      <point x="290" y="229"/>
      <point x="173" y="282" type="curve" smooth="yes"/>
      <point x="86" y="322"/>
      <point x="83" y="356"/>
      <point x="83" y="401" type="curve" smooth="yes"/>
      <point x="83" y="455"/>
      <point x="108" y="504"/>
      <point x="182" y="504" type="curve" smooth="yes"/>
      <point x="163" y="504"/>
      <point x="202" y="510"/>
      <point x="255" y="485" type="curve"/>
      <point x="262" y="507" type="line"/>
      <point x="222" y="531"/>
      <point x="175" y="535"/>
      <point x="173" y="535" type="curve" smooth="yes"/>
      <point x="100" y="535"/>
      <point x="49" y="484"/>
      <point x="49" y="405" type="curve" smooth="yes"/>
      <point x="49" y="359"/>
      <point x="27" y="314"/>
      <point x="128" y="269" type="curve" smooth="yes"/>
      <point x="203" y="235"/>
      <point x="245" y="199"/>
      <point x="245" y="139" type="curve" smooth="yes"/>
      <point x="245" y="85"/>
      <point x="224" y="24"/>
      <point x="154" y="24" type="curve" smooth="yes"/>
      <point x="113" y="24"/>
      <point x="81" y="38"/>
      <point x="44" y="50" type="curve"/>
      <point x="48" y="15" type="line"/>
      <point x="77" y="0"/>
      <point x="80" y="-3"/>
      <point x="95" y="-26" type="curve" smooth="yes"/>
      <point x="117" y="-69"/>
      <point x="133" y="-81"/>
      <point x="126" y="-86" type="curve" smooth="yes"/>
      <point x="176" y="-162"/>
      <point x="217" y="-192"/>
    </contour>
  </outline>
</glyph>
<glyph name="uni0241" format="2">
  <advance width="371.95"/>
  <unicode hex="0241"/>
  <outline>
    <contour>
      <point x="120" y="0" type="line"/>
      <point x="158" y="0" type="line"/>
      <point x="158" y="178" type="line" smooth="yes"/>
      <point x="158" y="250"/>
      <point x="191" y="298"/>
      <point x="242" y="353" type="curve" smooth="yes"/>
      <point x="335" y="431"/>
      <point x="334" y="488"/>
      <point x="334" y="548" type="curve" smooth="yes"/>
      <point x="334" y="640"/>
      <point x="263" y="701"/>
      <point x="168" y="701" type="curve" smooth="yes"/>
      <point x="143" y="701"/>
      <point x="120" y="705"/>
      <point x="24" y="657" type="curve"/>
      <point x="35" y="626" type="line"/>
      <point x="117" y="673"/>
      <point x="156" y="664"/>
      <point x="168" y="664" type="curve" smooth="yes"/>
      <point x="256" y="664"/>
      <point x="297" y="608"/>
      <point x="297" y="546" type="curve" smooth="yes"/>
      <point x="297" y="489"/>
      <point x="299" y="462"/>
      <point x="212" y="388" type="curve" smooth="yes"/>
      <point x="125" y="304"/>
      <point x="120" y="264"/>
      <point x="120" y="173" type="curve" smooth="yes"/>
    </contour>
  </outline>
</glyph>
<glyph name="uni0246" format="2">
  <advance width="418.45"/>
  <unicode hex="0246"/>
  <outline>
    <contour>
      <point x="144" y="-112" type="line"/>
      <point x="175" y="0" type="line"/>
      <point x="359" y="0" type="line"/>
      <point x="359" y="35" type="line"/>
      <point x="181" y="35" type="line"/>
      <point x="279" y="346" type="line"/>
      <point x="322" y="346" type="line"/>
      <point x="322" y="383" type="line"/>
      <point x="284" y="383" type="line"/>
      <point x="398" y="760" type="line"/>
      <point x="381" y="762" type="line"/>
      <point x="360" y="693" type="line"/>
      <point x="91" y="693" type="line"/>
      <point x="91" y="0" type="line"/>
      <point x="158" y="0" type="line"/>
      <point x="125" y="-110" type="line"/>
    </contour>
    <contour>
      <point x="129" y="35" type="line"/>
      <point x="129" y="346" type="line"/>
      <point x="263" y="346" type="line"/>
      <point x="163" y="35" type="line"/>
    </contour>
    <contour>
      <point x="129" y="383" type="line"/>
      <point x="129" y="658" type="line"/>
      <point x="355" y="658" type="line"/>
      <point x="268" y="383" type="line"/>
    </contour>
  </outline>
</glyph>
<glyph name="uni0247" format="2">
  <advance width="424.275"/>
  <unicode hex="0247"/>
  <anchor x="213" y="0" name="bottom"/>
  <anchor x="213" y="513" name="top"/>
  <outline>
    <contour>
      <point x="114" y="-80" type="line"/>
      <point x="140" y="16" type="line"/>
      <point x="169" y="2"/>
      <point x="205" y="-6"/>
      <point x="246" y="-6" type="curve" smooth="yes"/>
      <point x="268" y="-6"/>
      <point x="310" y="2"/>
      <point x="344" y="25" type="curve"/>
      <point x="334" y="53" type="line"/>
      <point x="305" y="33"/>
      <point x="256" y="26"/>
      <point x="255" y="26" type="curve" smooth="yes"/>
      <point x="208" y="26"/>
      <point x="172" y="37"/>
      <point x="145" y="57" type="curve"/>
      <point x="201" y="257" type="line"/>
      <point x="366" y="257" type="line"/>
      <point x="367" y="278"/>
      <point x="367" y="295"/>
      <point x="367" y="313" type="curve" smooth="yes"/>
      <point x="367" y="396"/>
      <point x="347" y="491"/>
      <point x="267" y="523" type="curve"/>
      <point x="288" y="609" type="line"/>
      <point x="275" y="610" type="line"/>
      <point x="253" y="528" type="line"/>
      <point x="244" y="530"/>
      <point x="236" y="531"/>
      <point x="224" y="531" type="curve" smooth="yes"/>
      <point x="65" y="531"/>
      <point x="57" y="383"/>
      <point x="57" y="274" type="curve" smooth="yes"/>
      <point x="57" y="142"/>
      <point x="82" y="64"/>
      <point x="129" y="27" type="curve"/>
      <point x="102" y="-79" type="line"/>
    </contour>
    <contour>
      <point x="139" y="81" type="line"/>
      <point x="111" y="118"/>
      <point x="94" y="175"/>
      <point x="93" y="257" type="curve"/>
      <point x="188" y="257" type="line"/>
    </contour>
    <contour>
      <point x="91" y="290" type="line"/>
      <point x="101" y="404"/>
      <point x="120" y="499"/>
      <point x="222" y="499" type="curve" smooth="yes"/>
      <point x="232" y="499"/>
      <point x="240" y="498"/>
      <point x="248" y="495" type="curve"/>
      <point x="194" y="290" type="line"/>
    </contour>
    <contour>
      <point x="206" y="290" type="line"/>
      <point x="258" y="477" type="line"/>
      <point x="302" y="452"/>
      <point x="325" y="390"/>
      <point x="325" y="290" type="curve"/>
    </contour>
  </outline>
</glyph>
<glyph name="apostrophe" format="2">
  <advance width="314"/>
  <unicode hex="02BC"/>
  <outline>
    <contour>
      <point x="136" y="590" type="line"/>
      <point x="181" y="652"/>
      <point x="195" y="714"/>
      <point x="193" y="760" type="curve" smooth="yes"/>
      <point x="193" y="767"/>
      <point x="193" y="772"/>
      <point x="192" y="781" type="curve"/>
      <point x="154" y="781" type="line"/>
      <point x="155" y="768"/>
      <point x="156" y="760"/>
      <point x="156" y="742" type="curve" smooth="yes"/>
      <point x="156" y="720"/>
      <point x="161" y="677"/>
      <point x="108" y="591" type="curve"/>
    </contour>
  </outline>
</glyph>
<glyph name="dotaccent" format="2">
  <advance width="314"/>
  <unicode hex="02D9"/>
  <outline>
    <contour>
      <point x="157" y="633" type="curve" smooth="yes"/>
      <point x="178" y="633"/>
      <point x="191" y="648"/>
      <point x="191" y="670" type="curve" smooth="yes"/>
      <point x="191" y="692"/>
      <point x="176" y="707"/>
      <point x="157" y="707" type="curve" smooth="yes"/>
      <point x="136" y="707"/>
      <point x="123" y="692"/>
      <point x="123" y="670" type="curve" smooth="yes"/>
      <point x="123" y="648"/>
      <point x="136" y="633"/>
    </contour>
  </outline>
</glyph>
<glyph name="ogonek" format="2">
  <advance width="308.975"/>
  <unicode hex="02DB"/>
  <outline>
    <contour>
      <point x="158" y="-187" type="curve" smooth="yes"/>
      <point x="171" y="-187"/>
      <point x="178" y="-188"/>
      <point x="203" y="-179" type="curve"/>
      <point x="201" y="-146" type="line"/>
      <point x="186" y="-150"/>
      <point x="181" y="-152"/>
      <point x="174" y="-152" type="curve" smooth="yes"/>
      <point x="134" y="-152"/>
      <point x="117" y="-132"/>
      <point x="117" y="-96" type="curve" smooth="yes"/>
      <point x="117" y="-74"/>
      <point x="100" y="-55"/>
      <point x="196" y="8" type="curve"/>
      <point x="158" y="8" type="line"/>
      <point x="78" y="-58"/>
      <point x="93" y="-77"/>
      <point x="93" y="-103" type="curve" smooth="yes"/>
      <point x="93" y="-158"/>
      <point x="140" y="-187"/>
    </contour>
  </outline>
</glyph>
<glyph name="tilde" format="2">
  <advance width="305.625"/>
  <unicode hex="02DC"/>
  <outline>
    <contour>
      <point x="67" y="632" type="line"/>
      <point x="82" y="680"/>
      <point x="98" y="681"/>
      <point x="99" y="681" type="curve" smooth="yes"/>
      <point x="117" y="681"/>
      <point x="175" y="632"/>
      <point x="203" y="632" type="curve" smooth="yes"/>
      <point x="215" y="632"/>
      <point x="238" y="615"/>
      <point x="265" y="711" type="curve"/>
      <point x="237" y="718" type="line"/>
      <point x="225" y="676"/>
      <point x="216" y="669"/>
      <point x="212" y="669" type="curve" smooth="yes"/>
      <point x="171" y="669"/>
      <point x="132" y="718"/>
      <point x="101" y="718" type="curve" smooth="yes"/>
      <point x="85" y="718"/>
      <point x="67" y="735"/>
      <point x="39" y="639" type="curve"/>
    </contour>
  </outline>
</glyph>
<glyph name="breve_inverted" format="2">
  <advance width="337.45"/>
  <unicode hex="0311"/>
  <outline>
    <contour>
      <point x="74" y="642" type="curve"/>
      <point x="103" y="642" type="line"/>
      <point x="109" y="748"/>
      <point x="154" y="740"/>
      <point x="169" y="740" type="curve" smooth="yes"/>
      <point x="184" y="740"/>
      <point x="229" y="748"/>
      <point x="234" y="642" type="curve"/>
      <point x="264" y="642" type="line"/>
      <point x="259" y="695"/>
      <point x="258" y="752"/>
      <point x="169" y="752" type="curve" smooth="yes"/>
      <point x="78" y="752"/>
      <point x="79" y="695"/>
    </contour>
  </outline>
</glyph>
<glyph name="Pi" format="2">
  <advance width="536.2"/>
  <unicode hex="03A0"/>
  <outline>
    <contour>
      <point x="91" y="0" type="line"/>
      <point x="129" y="0" type="line"/>
      <point x="129" y="658" type="line"/>
      <point x="407" y="658" type="line"/>
      <point x="407" y="0" type="line"/>
      <point x="446" y="0" type="line"/>
      <point x="446" y="693" type="line"/>
      <point x="91" y="693" type="line"/>
    </contour>
  </outline>
</glyph>
<glyph name="Sigma" format="2">
  <advance width="407.225"/>
  <unicode hex="03A3"/>
  <outline>
    <contour>
      <point x="38" y="0" type="line"/>
      <point x="379" y="0" type="line"/>
      <point x="379" y="36" type="line"/>
      <point x="87" y="36" type="line"/>
      <point x="112" y="109"/>
      <point x="167" y="238"/>
      <point x="259" y="361" type="curve"/>
      <point x="208" y="427"/>
      <point x="196" y="488"/>
      <point x="71" y="657" type="curve"/>
      <point x="366" y="657" type="line"/>
      <point x="366" y="693" type="line"/>
      <point x="41" y="693" type="line"/>
      <point x="41" y="664" type="line"/>
      <point x="152" y="508"/>
      <point x="177" y="429"/>
      <point x="223" y="362" type="curve"/>
      <point x="129" y="245"/>
      <point x="130" y="171"/>
      <point x="38" y="16" type="curve"/>
    </contour>
  </outline>
</glyph>
<glyph name="sigma" format="2">
  <advance width="461.95"/>
  <unicode hex="03C3"/>
  <outline>
    <contour>
      <point x="224" y="-13" type="curve" smooth="yes"/>
      <point x="333" y="-13"/>
      <point x="386" y="73"/>
      <point x="386" y="238" type="curve" smooth="yes"/>
      <point x="386" y="326"/>
      <point x="359" y="430"/>
      <point x="286" y="486" type="curve"/>
      <point x="435" y="486" type="line"/>
      <point x="435" y="518" type="line"/>
      <point x="267" y="518" type="line" smooth="yes"/>
      <point x="57" y="518"/>
      <point x="56" y="397"/>
      <point x="56" y="233" type="curve" smooth="yes"/>
      <point x="56" y="84"/>
      <point x="123" y="-13"/>
    </contour>
    <contour>
      <point x="224" y="19" type="curve" smooth="yes"/>
      <point x="147" y="19"/>
      <point x="90" y="113"/>
      <point x="90" y="233" type="curve" smooth="yes"/>
      <point x="90" y="357"/>
      <point x="43" y="486"/>
      <point x="267" y="486" type="curve" smooth="yes"/>
      <point x="252" y="486" type="line"/>
      <point x="318" y="438"/>
      <point x="352" y="344"/>
      <point x="352" y="243" type="curve" smooth="yes"/>
      <point x="352" y="101"/>
      <point x="314" y="19"/>
    </contour>
  </outline>
</glyph>
<glyph name="phi" format="2">
  <advance width="584.25"/>
  <unicode hex="03C6"/>
  <outline>
    <contour>
      <point x="279" y="-183" type="line"/>
      <point x="307" y="-183" type="line"/>
      <point x="307" y="-12" type="line"/>
      <point x="466" y="2"/>
      <point x="526" y="97"/>
      <point x="526" y="261" type="curve" smooth="yes"/>
      <point x="526" y="420"/>
      <point x="458" y="531"/>
      <point x="293" y="531" type="curve" smooth="yes"/>
      <point x="129" y="531"/>
      <point x="58" y="420"/>
      <point x="58" y="261" type="curve" smooth="yes"/>
      <point x="58" y="97"/>
      <point x="102" y="3"/>
      <point x="279" y="-12" type="curve"/>
    </contour>
    <contour>
      <point x="279" y="24" type="line"/>
      <point x="162" y="28"/>
      <point x="92" y="106"/>
      <point x="92" y="266" type="curve" smooth="yes"/>
      <point x="92" y="420"/>
      <point x="164" y="481"/>
      <point x="279" y="491" type="curve"/>
    </contour>
    <contour>
      <point x="307" y="24" type="curve"/>
      <point x="307" y="491" type="line"/>
      <point x="422" y="481"/>
      <point x="492" y="420"/>
      <point x="492" y="266" type="curve" smooth="yes"/>
      <point x="492" y="106"/>
      <point x="410" y="28"/>
    </contour>
  </outline>
</glyph>
<glyph name="afii10059" format="2">
  <advance width="828.425"/>
  <unicode hex="040A"/>
  <outline>
    <contour>
      <point x="573" y="-7" type="curve" smooth="yes"/>
      <point x="688" y="-7"/>
      <point x="787" y="31"/>
      <point x="787" y="179" type="curve" smooth="yes"/>
      <point x="787" y="374"/>
      <point x="665" y="372"/>
      <point x="574" y="372" type="curve" smooth="yes"/>
      <point x="538" y="372"/>
      <point x="534" y="379"/>
      <point x="487" y="384" type="curve"/>
      <point x="487" y="693" type="line"/>
      <point x="449" y="693" type="line"/>
      <point x="449" y="398" type="line"/>
      <point x="129" y="398" type="line"/>
      <point x="129" y="693" type="line"/>
      <point x="91" y="693" type="line"/>
      <point x="91" y="0" type="line"/>
      <point x="129" y="0" type="line"/>
      <point x="129" y="362" type="line"/>
      <point x="449" y="362" type="line"/>
      <point x="449" y="15" type="line"/>
      <point x="476" y="4"/>
      <point x="520" y="-7"/>
    </contour>
    <contour>
      <point x="564" y="30" type="curve" smooth="yes"/>
      <point x="549" y="30"/>
      <point x="522" y="31"/>
      <point x="487" y="43" type="curve"/>
      <point x="487" y="347" type="line"/>
      <point x="539" y="342"/>
      <point x="566" y="335"/>
      <point x="583" y="335" type="curve" smooth="yes"/>
      <point x="739" y="335"/>
      <point x="745" y="267"/>
      <point x="745" y="185" type="curve" smooth="yes"/>
      <point x="745" y="102"/>
      <point x="722" y="30"/>
    </contour>
  </outline>
</glyph>
<glyph name="afii10048" format="2">
  <advance width="792.825"/>
  <unicode hex="042E"/>
  <anchor x="397" y="693" name="top"/>
  <outline>
    <contour>
      <point x="500" y="-14" type="curve" smooth="yes"/>
      <point x="699" y="-14"/>
      <point x="730" y="177"/>
      <point x="730" y="347" type="curve" smooth="yes"/>
      <point x="730" y="563"/>
      <point x="660" y="708"/>
      <point x="500" y="708" type="curve" smooth="yes"/>
      <point x="349" y="708"/>
      <point x="270" y="577"/>
      <point x="270" y="379" type="curve"/>
      <point x="129" y="379" type="line"/>
      <point x="129" y="693" type="line"/>
      <point x="91" y="693" type="line"/>
      <point x="91" y="0" type="line"/>
      <point x="129" y="0" type="line"/>
      <point x="129" y="341" type="line"/>
      <point x="269" y="341" type="line"/>
      <point x="265" y="184"/>
      <point x="292" y="-14"/>
    </contour>
    <contour>
      <point x="499" y="20" type="curve" smooth="yes"/>
      <point x="371" y="20"/>
      <point x="306" y="151"/>
      <point x="306" y="345" type="curve" smooth="yes"/>
      <point x="306" y="542"/>
      <point x="371" y="674"/>
      <point x="499" y="674" type="curve" smooth="yes"/>
      <point x="629" y="674"/>
      <point x="691" y="542"/>
      <point x="691" y="347" type="curve" smooth="yes"/>
      <point x="691" y="151"/>
      <point x="629" y="20"/>
    </contour>
  </outline>
</glyph>
<glyph name="afii10084" format="2">
  <advance width="335.8"/>
  <unicode hex="0442"/>
  <anchor x="316" y="0" name="bottomright"/>
  <outline>
    <contour>
      <point x="152" y="0" type="line"/>
      <point x="186" y="0" type="line"/>
      <point x="186" y="486" type="line"/>
      <point x="320" y="486" type="line"/>
      <point x="320" y="518" type="line"/>
      <point x="16" y="518" type="line"/>
      <point x="16" y="486" type="line"/>
      <point x="152" y="486" type="line"/>
    </contour>
  </outline>
</glyph>
<glyph name="afii10090" format="2">
  <advance width="649.475"/>
  <unicode hex="0448"/>
  <outline>
    <contour>
      <point x="88" y="0" type="line"/>
      <point x="561" y="0" type="line"/>
      <point x="561" y="518" type="line"/>
      <point x="527" y="518" type="line"/>
      <point x="527" y="32" type="line"/>
      <point x="342" y="32" type="line"/>
      <point x="342" y="518" type="line"/>
      <point x="308" y="518" type="line"/>
      <point x="308" y="32" type="line"/>
      <point x="122" y="32" type="line"/>
      <point x="122" y="518" type="line"/>
      <point x="88" y="518" type="line"/>
    </contour>
  </outline>
</glyph>
<glyph name="afii10096" format="2">
  <advance width="600.725"/>
  <unicode hex="044E"/>
  <anchor x="301" y="513" name="top"/>
  <outline>
    <contour>
      <point x="381" y="-5" type="curve" smooth="yes"/>
      <point x="502" y="-5"/>
      <point x="544" y="111"/>
      <point x="544" y="264" type="curve" smooth="yes"/>
      <point x="544" y="416"/>
      <point x="502" y="531"/>
      <point x="381" y="531" type="curve" smooth="yes"/>
      <point x="266" y="531"/>
      <point x="218" y="429"/>
      <point x="218" y="287" type="curve"/>
      <point x="122" y="287" type="line"/>
      <point x="122" y="513" type="line"/>
      <point x="88" y="513" type="line"/>
      <point x="88" y="0" type="line"/>
      <point x="122" y="0" type="line"/>
      <point x="122" y="247" type="line"/>
      <point x="220" y="247" type="line"/>
      <point x="222" y="101"/>
      <point x="265" y="-5"/>
    </contour>
    <contour>
      <point x="380" y="27" type="curve" smooth="yes"/>
      <point x="294" y="27"/>
      <point x="251" y="122"/>
      <point x="251" y="264" type="curve" smooth="yes"/>
      <point x="251" y="405"/>
      <point x="294" y="500"/>
      <point x="380" y="500" type="curve" smooth="yes"/>
      <point x="467" y="500"/>
      <point x="510" y="405"/>
      <point x="510" y="264" type="curve" smooth="yes"/>
      <point x="510" y="122"/>
      <point x="467" y="27"/>
    </contour>
  </outline>
</glyph>
<glyph name="afii10098" format="2">
  <advance width="295.8"/>
  <unicode hex="0491"/>
  <outline>
    <contour>
      <point x="88" y="0" type="line"/>
      <point x="122" y="0" type="line"/>
      <point x="122" y="486" type="line"/>
      <point x="285" y="486" type="line"/>
      <point x="285" y="650" type="line"/>
      <point x="246" y="650" type="line"/>
      <point x="246" y="518" type="line"/>
      <point x="88" y="518" type="line"/>
    </contour>
  </outline>
</glyph>
<glyph name="uni0496" format="2">
  <advance width="649.35"/>
  <unicode hex="0496"/>
  <outline>
    <contour>
      <point x="595" y="-185" type="line"/>
      <point x="634" y="-185" type="line"/>
      <point x="634" y="34" type="line"/>
      <point x="582" y="34" type="line"/>
      <point x="550" y="124"/>
      <point x="457" y="257"/>
      <point x="347" y="354" type="curve"/>
      <point x="482" y="528"/>
      <point x="461" y="557"/>
      <point x="555" y="693" type="curve"/>
      <point x="522" y="693" type="line"/>
      <point x="408" y="535"/>
      <point x="335" y="409"/>
      <point x="327" y="384" type="curve"/>
      <point x="327" y="693" type="line"/>
      <point x="287" y="693" type="line"/>
      <point x="287" y="384" type="line"/>
      <point x="269" y="416"/>
      <point x="202" y="542"/>
      <point x="92" y="693" type="curve"/>
      <point x="61" y="693" type="line"/>
      <point x="134" y="581"/>
      <point x="146" y="508"/>
      <point x="267" y="356" type="curve"/>
      <point x="159" y="259"/>
      <point x="50" y="94"/>
      <point x="29" y="0" type="curve"/>
      <point x="68" y="0" type="line"/>
      <point x="96" y="106"/>
      <point x="170" y="241"/>
      <point x="287" y="333" type="curve"/>
      <point x="287" y="0" type="line"/>
      <point x="327" y="0" type="line"/>
      <point x="327" y="333" type="line"/>
      <point x="444" y="241"/>
      <point x="518" y="106"/>
      <point x="546" y="0" type="curve"/>
      <point x="595" y="0" type="line"/>
    </contour>
  </outline>
</glyph>
<glyph name="uni04A4" format="2">
  <advance width="613.225"/>
  <unicode hex="04A4"/>
  <outline>
    <contour>
      <point x="91" y="0" type="line"/>
      <point x="129" y="0" type="line"/>
      <point x="129" y="344" type="line"/>
      <point x="427" y="344" type="line"/>
      <point x="427" y="0" type="line"/>
      <point x="465" y="0" type="line"/>
      <point x="465" y="659" type="line"/>
      <point x="598" y="659" type="line"/>
      <point x="598" y="693" type="line"/>
      <point x="427" y="693" type="line"/>
      <point x="427" y="380" type="line"/>
      <point x="129" y="380" type="line"/>
      <point x="129" y="693" type="line"/>
      <point x="91" y="693" type="line"/>
    </contour>
  </outline>
</glyph>
<glyph name="uni04B5" format="2">
  <advance width="515.35"/>
  <unicode hex="04B5"/>
  <outline>
    <contour>
      <point x="438" y="-145" type="line"/>
      <point x="477" y="-145" type="line"/>
      <point x="477" y="28" type="line"/>
      <point x="438" y="28" type="line"/>
      <point x="438" y="518" type="line"/>
      <point x="404" y="518" type="line"/>
      <point x="404" y="32" type="line"/>
      <point x="178" y="32" type="line"/>
      <point x="178" y="488" type="line"/>
      <point x="294" y="488" type="line"/>
      <point x="294" y="518" type="line"/>
      <point x="44" y="518" type="line"/>
      <point x="44" y="488" type="line"/>
      <point x="143" y="488" type="line"/>
      <point x="143" y="0" type="line"/>
      <point x="438" y="0" type="line"/>
    </contour>
  </outline>
</glyph>
<glyph name="uni04C5" format="2">
  <advance width="518.675"/>
  <unicode hex="04C5"/>
  <outline>
    <contour>
      <point x="382" y="-195" type="line"/>
      <point x="462" y="-123"/>
      <point x="474" y="-29"/>
      <point x="469" y="35" type="curve"/>
      <point x="436" y="35" type="line"/>
      <point x="436" y="693" type="line"/>
      <point x="172" y="693" type="line"/>
      <point x="172" y="607" type="line" smooth="yes"/>
      <point x="172" y="517"/>
      <point x="192" y="216"/>
      <point x="93" y="53" type="curve" smooth="yes"/>
      <point x="69" y="43"/>
      <point x="28" y="35"/>
      <point x="7" y="28" type="curve"/>
      <point x="12" y="-7" type="line"/>
      <point x="35" y="-7"/>
      <point x="78" y="-24"/>
      <point x="116" y="18" type="curve" smooth="yes"/>
      <point x="207" y="158"/>
      <point x="210" y="437"/>
      <point x="210" y="590" type="curve" smooth="yes"/>
      <point x="210" y="659" type="line"/>
      <point x="398" y="659" type="line"/>
      <point x="398" y="0" type="line"/>
      <point x="428" y="0" type="line"/>
      <point x="426" y="-56"/>
      <point x="427" y="-99"/>
      <point x="357" y="-170" type="curve"/>
    </contour>
  </outline>
</glyph>
<glyph name="uni04CC" format="2">
  <advance width="420.85"/>
  <unicode hex="04CC"/>
  <outline>
    <contour>
      <point x="256" y="-145" type="line"/>
      <point x="291" y="-145" type="line"/>
      <point x="291" y="0" type="line"/>
      <point x="334" y="0" type="line"/>
      <point x="334" y="518" type="line"/>
      <point x="300" y="518" type="line"/>
      <point x="300" y="251" type="line"/>
      <point x="242" y="234"/>
      <point x="189" y="232"/>
      <point x="201" y="232" type="curve" smooth="yes"/>
      <point x="108" y="232"/>
      <point x="81" y="310"/>
      <point x="81" y="373" type="curve" smooth="yes"/>
      <point x="81" y="518" type="line"/>
      <point x="47" y="518" type="line"/>
      <point x="47" y="373" type="line" smooth="yes"/>
      <point x="47" y="264"/>
      <point x="99" y="199"/>
      <point x="194" y="199" type="curve" smooth="yes"/>
      <point x="206" y="199"/>
      <point x="219" y="193"/>
      <point x="300" y="216" type="curve"/>
      <point x="300" y="28" type="line"/>
      <point x="256" y="28" type="line"/>
    </contour>
  </outline>
</glyph>
<glyph name="uni04CF" format="2">
  <advance width="237.9"/>
  <unicode hex="04CF"/>
  <anchor x="129" y="0" name="bottom"/>
  <anchor x="232" y="10" name="ogonek"/>
  <anchor x="129" y="693" name="top"/>
  <anchor x="20" y="693" name="topleft"/>
  <outline>
    <contour>
      <point x="97" y="0" type="line"/>
      <point x="141" y="0" type="line"/>
      <point x="141" y="693" type="line"/>
      <point x="97" y="693" type="line"/>
    </contour>
  </outline>
</glyph>
<glyph name="quoteright" format="2">
  <advance width="212.95"/>
  <unicode hex="2019"/>
  <outline>
    <contour>
      <point x="82" y="534" type="line"/>
      <point x="121" y="595"/>
      <point x="132" y="650"/>
      <point x="132" y="712" type="curve" smooth="yes"/>
      <point x="132" y="720"/>
      <point x="132" y="723"/>
      <point x="131" y="732" type="curve"/>
      <point x="98" y="732" type="line"/>
      <point x="97" y="724"/>
      <point x="98" y="710"/>
      <point x="98" y="705" type="curve" smooth="yes"/>
      <point x="98" y="662"/>
      <point x="95" y="608"/>
      <point x="56" y="537" type="curve"/>
    </contour>
  </outline>
</glyph>
<glyph name="partialdiff" format="2">
  <advance width="458.65"/>
  <unicode hex="2202"/>
  <outline>
    <contour>
      <point x="213" y="-13" type="curve" smooth="yes"/>
      <point x="291" y="-13"/>
      <point x="395" y="64"/>
      <point x="395" y="406" type="curve" smooth="yes"/>
      <point x="395" y="695"/>
      <point x="295" y="776"/>
      <point x="176" y="776" type="curve" smooth="yes"/>
      <point x="148" y="776"/>
      <point x="132" y="770"/>
      <point x="87" y="754" type="curve"/>
      <point x="95" y="726" type="line"/>
      <point x="138" y="742"/>
      <point x="179" y="747"/>
      <point x="191" y="747" type="curve" smooth="yes"/>
      <point x="270" y="747"/>
      <point x="367" y="671"/>
      <point x="370" y="419" type="curve"/>
      <point x="299" y="482"/>
      <point x="253" y="476"/>
      <point x="232" y="476" type="curve" smooth="yes"/>
      <point x="122" y="476"/>
      <point x="57" y="396"/>
      <point x="57" y="219" type="curve" smooth="yes"/>
      <point x="57" y="66"/>
      <point x="102" y="-13"/>
    </contour>
    <contour>
      <point x="208" y="15" type="curve" smooth="yes"/>
      <point x="115" y="15"/>
      <point x="85" y="94"/>
      <point x="85" y="215" type="curve" smooth="yes"/>
      <point x="85" y="382"/>
      <point x="157" y="454"/>
      <point x="237" y="454" type="curve" smooth="yes"/>
      <point x="318" y="454"/>
      <point x="349" y="416"/>
      <point x="367" y="376" type="curve"/>
      <point x="352" y="53"/>
      <point x="242" y="15"/>
    </contour>
  </outline>
</glyph>
<glyph name="approxequal" format="2">
  <advance width="428.325"/>
  <unicode hex="2248"/>
  <outline>
    <contour>
      <point x="292" y="160" type="curve" smooth="yes"/>
      <point x="326" y="160"/>
      <point x="369" y="161"/>
      <point x="390" y="268" type="curve"/>
      <point x="361" y="280" type="line"/>
      <point x="334" y="171"/>
      <point x="312" y="201"/>
      <point x="299" y="201" type="curve" smooth="yes"/>
      <point x="251" y="201"/>
      <point x="197" y="279"/>
      <point x="132" y="279" type="curve" smooth="yes"/>
      <point x="104" y="279"/>
      <point x="64" y="278"/>
      <point x="40" y="171" type="curve"/>
      <point x="69" y="159" type="line"/>
      <point x="107" y="278"/>
      <point x="123" y="238"/>
      <point x="140" y="238" type="curve" smooth="yes"/>
      <point x="190" y="238"/>
      <point x="225" y="160"/>
    </contour>
    <contour>
      <point x="292" y="313" type="curve" smooth="yes"/>
      <point x="326" y="313"/>
      <point x="369" y="314"/>
      <point x="390" y="421" type="curve"/>
      <point x="361" y="432" type="line"/>
      <point x="334" y="324"/>
      <point x="312" y="354"/>
      <point x="299" y="354" type="curve" smooth="yes"/>
      <point x="251" y="354"/>
      <point x="197" y="432"/>
      <point x="132" y="432" type="curve" smooth="yes"/>
      <point x="104" y="432"/>
      <point x="64" y="431"/>
      <point x="40" y="324" type="curve"/>
      <point x="69" y="312" type="line"/>
      <point x="107" y="431"/>
      <point x="123" y="391"/>
      <point x="140" y="391" type="curve" smooth="yes"/>
      <point x="190" y="391"/>
      <point x="225" y="313"/>
    </contour>
  </outline>
</glyph>
<glyph name="dieresis_acute" format="2">
  <advance width="310.65"/>
  <outline>
    <contour>
      <point x="148" y="716" type="line"/>
      <point x="252" y="837" type="line"/>
      <point x="225" y="856" type="line"/>
      <point x="132" y="727" type="line"/>
    </contour>
    <contour>
      <point x="77" y="615" type="curve" smooth="yes"/>
      <point x="91" y="615"/>
      <point x="104" y="628"/>
      <point x="104" y="643" type="curve" smooth="yes"/>
      <point x="104" y="659"/>
      <point x="91" y="671"/>
      <point x="77" y="671" type="curve" smooth="yes"/>
      <point x="63" y="671"/>
      <point x="50" y="659"/>
      <point x="50" y="643" type="curve" smooth="yes"/>
      <point x="50" y="628"/>
      <point x="63" y="615"/>
    </contour>
    <contour>
      <point x="235" y="615" type="curve" smooth="yes"/>
      <point x="249" y="615"/>
      <point x="262" y="628"/>
      <point x="262" y="643" type="curve" smooth="yes"/>
      <point x="262" y="659"/>
      <point x="249" y="671"/>
      <point x="235" y="671" type="curve" smooth="yes"/>
      <point x="221" y="671"/>
      <point x="208" y="659"/>
      <point x="208" y="643" type="curve" smooth="yes"/>
      <point x="208" y="628"/>
      <point x="221" y="615"/>
    </contour>
  </outline>
</glyph>
<glyph name="dieresis_grave.cap" format="2">
  <advance width="300.6"/>
  <outline>
    <contour>
      <point x="171" y="801" type="line"/>
      <point x="191" y="815" type="line"/>
      <point x="97" y="945" type="line"/>
      <point x="68" y="922" type="line"/>
    </contour>
    <contour>
      <point x="18" y="781" type="curve" smooth="yes"/>
      <point x="32" y="781"/>
      <point x="45" y="793"/>
      <point x="45" y="809" type="curve" smooth="yes"/>
      <point x="45" y="824"/>
      <point x="32" y="837"/>
      <point x="18" y="837" type="curve" smooth="yes"/>
      <point x="4" y="837"/>
      <point x="-9" y="824"/>
      <point x="-9" y="809" type="curve" smooth="yes"/>
      <point x="-9" y="793"/>
      <point x="4" y="781"/>
    </contour>
    <contour>
      <point x="283" y="781" type="curve" smooth="yes"/>
      <point x="297" y="781"/>
      <point x="310" y="793"/>
      <point x="310" y="809" type="curve" smooth="yes"/>
      <point x="310" y="824"/>
      <point x="297" y="837"/>
      <point x="283" y="837" type="curve" smooth="yes"/>
      <point x="269" y="837"/>
      <point x="256" y="824"/>
      <point x="256" y="809" type="curve" smooth="yes"/>
      <point x="256" y="793"/>
      <point x="269" y="781"/>
    </contour>
  </outline>
</glyph>
<glyph name="revcommaaccent" format="2">
  <advance width="546.825"/>
  <outline>
    <contour>
      <point x="240" y="616" type="curve"/>
      <point x="276" y="616" type="line"/>
      <point x="276" y="620"/>
      <point x="276" y="625"/>
      <point x="276" y="629" type="curve" smooth="yes"/>
      <point x="276" y="681"/>
      <point x="281" y="719"/>
      <point x="344" y="753" type="curve"/>
      <point x="319" y="774" type="line"/>
      <point x="253" y="745"/>
      <point x="239" y="687"/>
      <point x="239" y="643" type="curve" smooth="yes"/>
      <point x="239" y="619"/>
      <point x="239" y="619"/>
    </contour>
  </outline>
</glyph>
